<svg width="21" height="20" viewBox="0 0 21 20" fill="none" xmlns="http://www.w3.org/2000/svg">
<path fill-rule="evenodd" clip-rule="evenodd" d="M10.5002 19.1666C15.5627 19.1666 19.6668 15.0625 19.6668 9.99992C19.6668 4.93731 15.5627 0.833252 10.5002 0.833252C5.43755 0.833252 1.3335 4.93731 1.3335 9.99992C1.3335 15.0625 5.43755 19.1666 10.5002 19.1666ZM14.8397 7.9751C15.165 7.6495 15.1647 7.12186 14.8392 6.79658C14.5136 6.47132 13.9859 6.47158 13.6607 6.79718L9.04025 11.4223L7.35187 9.6605C7.03343 9.32825 6.5059 9.317 6.17362 9.63542C5.84134 9.95392 5.83012 10.4814 6.14856 10.8137L8.42618 13.1903C8.58127 13.3522 8.79503 13.4447 9.01916 13.447C9.24333 13.4493 9.45899 13.3613 9.61741 13.2027L14.8397 7.9751Z" fill="white"/>
</svg>
