<svg width="21" height="20" viewBox="0 0 21 20" fill="none" xmlns="http://www.w3.org/2000/svg">
<path d="M2.05469 17.0832L10.5001 2.5L18.9456 17.0832H2.05469ZM10.5001 14.8397C10.6909 14.8397 10.8507 14.7752 10.9797 14.6462C11.1087 14.5172 11.1732 14.3573 11.1732 14.1666C11.1732 13.9759 11.1087 13.816 10.9797 13.687C10.8507 13.558 10.6909 13.4935 10.5001 13.4935C10.3094 13.4935 10.1496 13.558 10.0206 13.687C9.89158 13.816 9.82708 13.9759 9.82708 14.1666C9.82708 14.3573 9.89158 14.5172 10.0206 14.6462C10.1496 14.7752 10.3094 14.8397 10.5001 14.8397ZM9.87517 12.6602H11.1251V8.49354H9.87517V12.6602Z" fill="white"/>
</svg>
