<svg width="21" height="20" viewBox="0 0 21 20" fill="none" xmlns="http://www.w3.org/2000/svg">
<path d="M10.5 14.1667C10.7361 14.1667 10.934 14.0868 11.0938 13.9271C11.2535 13.7674 11.3333 13.5694 11.3333 13.3333C11.3333 13.0972 11.2535 12.8993 11.0938 12.7396C10.934 12.5799 10.7361 12.5 10.5 12.5C10.2639 12.5 10.066 12.5799 9.90625 12.7396C9.74653 12.8993 9.66667 13.0972 9.66667 13.3333C9.66667 13.5694 9.74653 13.7674 9.90625 13.9271C10.066 14.0868 10.2639 14.1667 10.5 14.1667ZM9.66667 10.8333H11.3333V5.83333H9.66667V10.8333ZM7.375 17.5L3 13.125V6.875L7.375 2.5H13.625L18 6.875V13.125L13.625 17.5H7.375Z" fill="white"/>
</svg>
