<svg width="360" height="24" viewBox="0 0 360 24" fill="none" xmlns="http://www.w3.org/2000/svg">
<rect width="360" height="24" fill="#B3B3B3"/>
<mask id="mask0_318_6911" style="mask-type:alpha" maskUnits="userSpaceOnUse" x="20" y="5" width="320" height="14">
<path fill-rule="evenodd" clip-rule="evenodd" d="M339.333 7.66659C339.333 7.1143 338.886 6.66659 338.333 6.66659H337.333V5.33325H333.333V6.66659H332.333C331.781 6.66659 331.333 7.1143 331.333 7.66659V17.6666C331.333 18.2189 331.781 18.6666 332.333 18.6666H338.333C338.886 18.6666 339.333 18.2189 339.333 17.6666V7.66659ZM304.522 9.14461C304.752 8.85675 304.705 8.42967 304.401 8.22037C303.325 7.47809 300.779 5.99992 297.333 5.99992C293.883 5.99992 291.341 7.47764 290.265 8.22003C289.962 8.42951 289.914 8.85675 290.145 9.14461L296.314 16.8422C296.837 17.4969 297.83 17.4969 298.353 16.8422L304.522 9.14461ZM22.2148 15.7011H22.0781V17.0614H22.2285C22.9668 17.0614 23.6094 16.9657 24.1562 16.7743C24.7077 16.5784 25.1725 16.3072 25.5508 15.9609C25.9336 15.6099 26.2412 15.2043 26.4736 14.7441C26.7106 14.2792 26.8815 13.7756 26.9863 13.2333C27.0911 12.6864 27.1436 12.1191 27.1436 11.5312V10.9501C27.1436 10.3896 27.0729 9.86548 26.9316 9.37785C26.7904 8.89022 26.5807 8.46183 26.3027 8.09269C26.0247 7.72355 25.6829 7.43416 25.2773 7.22453C24.8717 7.01489 24.4001 6.91007 23.8623 6.91007C23.3564 6.91007 22.903 7.00122 22.502 7.18351C22.1055 7.36125 21.7682 7.6119 21.4902 7.93547C21.2122 8.25448 21.0003 8.62362 20.8545 9.04289C20.7087 9.46216 20.6357 9.91105 20.6357 10.3896C20.6357 10.8316 20.695 11.2532 20.8135 11.6542C20.932 12.0553 21.1097 12.4107 21.3467 12.7206C21.5882 13.0305 21.889 13.2766 22.249 13.4589C22.6136 13.6366 23.0329 13.7255 23.5068 13.7255C23.8988 13.7255 24.2611 13.6435 24.5938 13.4794C24.931 13.3153 25.2249 13.0966 25.4756 12.8232L25.4889 12.8085C25.4663 13.1268 25.4163 13.4279 25.3389 13.7118C25.2295 14.1129 25.0495 14.4615 24.7988 14.7577C24.5482 15.054 24.2109 15.2864 23.7871 15.455C23.3678 15.6191 22.8438 15.7011 22.2148 15.7011ZM25.5029 11.3485C25.4124 11.5519 25.2893 11.7359 25.1338 11.9003C24.9743 12.0689 24.7874 12.2034 24.5732 12.3036C24.359 12.3993 24.1243 12.4472 23.8691 12.4472C23.6003 12.4472 23.3656 12.3902 23.165 12.2763C22.9645 12.1624 22.7982 12.0074 22.666 11.8114C22.5339 11.6155 22.4336 11.3922 22.3652 11.1415C22.3014 10.8863 22.2695 10.622 22.2695 10.3486C22.2695 10.0569 22.3037 9.78345 22.3721 9.52824C22.445 9.26847 22.5475 9.04289 22.6797 8.85148C22.8164 8.65552 22.9827 8.50285 23.1787 8.39347C23.3792 8.27954 23.6048 8.22257 23.8555 8.22257C24.0833 8.22257 24.2952 8.27498 24.4912 8.3798C24.6917 8.48462 24.8672 8.64185 25.0176 8.85148C25.1725 9.05656 25.291 9.31405 25.373 9.62394C25.4596 9.92928 25.5029 10.2847 25.5029 10.6903V11.3485ZM29.085 15.537C28.9118 15.7102 28.8252 15.9244 28.8252 16.1796C28.8252 16.4348 28.9118 16.649 29.085 16.8222C29.2581 16.9954 29.4928 17.0819 29.7891 17.0819C30.0898 17.0819 30.3245 16.9954 30.4932 16.8222C30.6663 16.649 30.7529 16.4348 30.7529 16.1796C30.7529 15.9244 30.6663 15.7102 30.4932 15.537C30.3245 15.3593 30.0898 15.2704 29.7891 15.2704C29.4928 15.2704 29.2581 15.3593 29.085 15.537ZM29.0918 9.71281C28.9186 9.88599 28.832 10.1002 28.832 10.3554C28.832 10.6106 28.9186 10.8248 29.0918 10.998C29.265 11.1711 29.4997 11.2577 29.7959 11.2577C30.0967 11.2577 30.3314 11.1711 30.5 10.998C30.6732 10.8248 30.7598 10.6106 30.7598 10.3554C30.7598 10.1002 30.6732 9.88599 30.5 9.71281C30.3314 9.53507 30.0967 9.44621 29.7959 9.44621C29.4997 9.44621 29.265 9.53507 29.0918 9.71281ZM39.2568 14.7646V13.4521H38.0127V7.04679H37.6367H36.3652H36.3174L32.0244 13.7734L32.0791 14.7646H36.3652V16.9999H38.0127V14.7646H39.2568ZM36.3652 13.4521V9.22474L36.208 9.49406L33.7402 13.4521H36.3652ZM44.8555 16.9999V7.01261H44.6572L40.7676 8.43449V9.79484L43.208 8.96769V16.9999H44.8555ZM321.333 6.94273C321.333 6.34879 320.615 6.05135 320.195 6.47132L309.138 17.5285C308.718 17.9485 309.016 18.6666 309.609 18.6666H320C320.736 18.6666 321.333 18.0696 321.333 17.3333V6.94273Z" fill="white"/>
</mask>
<g mask="url(#mask0_318_6911)">
<path d="M264 0H360V24H264V0Z" fill="white"/>
<path d="M0 0H96V24H0V0Z" fill="white"/>
</g>
</svg>
